<svg width="400" height="400" viewBox="0 0 400 400" fill="none" xmlns="http://www.w3.org/2000/svg">
<path fill-rule="evenodd" clip-rule="evenodd" d="M221.053 84.2105C221.053 95.8376 230.478 105.263 242.105 105.263C253.732 105.263 263.158 95.8376 263.158 84.2105C263.158 72.5835 253.732 63.1579 242.105 63.1579C230.478 63.1579 221.053 72.5835 221.053 84.2105ZM242.105 42.1053C218.851 42.1053 200 60.9565 200 84.2105C200 107.465 218.851 126.316 242.105 126.316C265.359 126.316 284.211 107.465 284.211 84.2105C284.211 60.9565 265.359 42.1053 242.105 42.1053Z" fill="black"/>
<path fill-rule="evenodd" clip-rule="evenodd" d="M105.291 168.421H197.061L218.114 231.579H252.632V252.632H133.361L105.291 168.421ZM195.922 231.579L181.887 189.474H134.499L148.535 231.579H195.922Z" fill="black"/>
<path d="M131.58 357.895H105.265L168.423 273.684H194.739L131.58 357.895Z" fill="black"/>
<path d="M242.105 147.368C271.173 147.368 294.737 170.932 294.737 200V294.736H247.369L200 357.895H173.684L236.842 273.684H273.684V200C273.684 182.559 259.546 168.421 242.105 168.421V147.368Z" fill="black"/>
</svg>
