<svg width="200" height="200" viewBox="0 0 200 200" fill="none" xmlns="http://www.w3.org/2000/svg">
<rect width="200" height="200" fill="#F5F5F5"/>
<path opacity="0.5" d="M56.7997 106V94.3636H60.7315C61.6444 94.3636 62.3906 94.5284 62.9702 94.858C63.5535 95.1837 63.9853 95.625 64.2656 96.1818C64.5459 96.7386 64.6861 97.3598 64.6861 98.0455C64.6861 98.7311 64.5459 99.3542 64.2656 99.9148C63.9891 100.475 63.5611 100.922 62.9815 101.256C62.402 101.585 61.6596 101.75 60.7543 101.75H57.9361V100.5H60.7088C61.3338 100.5 61.8357 100.392 62.2145 100.176C62.5933 99.9602 62.8679 99.6686 63.0384 99.3011C63.2126 98.9299 63.2997 98.5114 63.2997 98.0455C63.2997 97.5795 63.2126 97.1629 63.0384 96.7955C62.8679 96.428 62.5914 96.1402 62.2088 95.9318C61.8262 95.7197 61.3187 95.6136 60.6861 95.6136H58.2088V106H56.7997ZM68.1151 94.3636V106H66.7741V94.3636H68.1151ZM73.1392 106.205C72.5862 106.205 72.0843 106.1 71.6335 105.892C71.1828 105.68 70.8248 105.375 70.5597 104.977C70.2945 104.576 70.1619 104.091 70.1619 103.523C70.1619 103.023 70.2604 102.617 70.4574 102.307C70.6544 101.992 70.9176 101.746 71.2472 101.568C71.5767 101.39 71.9403 101.258 72.3381 101.17C72.7396 101.08 73.143 101.008 73.5483 100.955C74.0786 100.886 74.5085 100.835 74.8381 100.801C75.1714 100.763 75.4138 100.701 75.5653 100.614C75.7206 100.527 75.7983 100.375 75.7983 100.159V100.114C75.7983 99.553 75.6449 99.1174 75.3381 98.8068C75.035 98.4962 74.5748 98.3409 73.9574 98.3409C73.3172 98.3409 72.8153 98.4811 72.4517 98.7614C72.0881 99.0417 71.8324 99.3409 71.6847 99.6591L70.4119 99.2045C70.6392 98.6742 70.9422 98.2614 71.321 97.9659C71.7036 97.6667 72.1203 97.4583 72.571 97.3409C73.0256 97.2197 73.4725 97.1591 73.9119 97.1591C74.1922 97.1591 74.5142 97.1932 74.8778 97.2614C75.2453 97.3258 75.5994 97.4602 75.9403 97.6648C76.285 97.8693 76.571 98.178 76.7983 98.5909C77.0256 99.0038 77.1392 99.5568 77.1392 100.25V106H75.7983V104.818H75.7301C75.6392 105.008 75.4877 105.21 75.2756 105.426C75.0634 105.642 74.7813 105.826 74.429 105.977C74.0767 106.129 73.6468 106.205 73.1392 106.205ZM73.3438 105C73.8741 105 74.321 104.896 74.6847 104.688C75.0521 104.479 75.3286 104.21 75.5142 103.881C75.7036 103.551 75.7983 103.205 75.7983 102.841V101.614C75.7415 101.682 75.6165 101.744 75.4233 101.801C75.2339 101.854 75.0142 101.902 74.7642 101.943C74.518 101.981 74.2775 102.015 74.0426 102.045C73.8116 102.072 73.6241 102.095 73.4801 102.114C73.1316 102.159 72.8059 102.233 72.5028 102.335C72.2036 102.434 71.9612 102.583 71.7756 102.784C71.5938 102.981 71.5028 103.25 71.5028 103.591C71.5028 104.057 71.6752 104.409 72.0199 104.648C72.3684 104.883 72.8097 105 73.3438 105ZM83.1321 106.182C82.3139 106.182 81.6094 105.989 81.0185 105.602C80.4276 105.216 79.973 104.684 79.6548 104.006C79.3366 103.328 79.1776 102.553 79.1776 101.682C79.1776 100.795 79.3404 100.013 79.6662 99.3352C79.9957 98.6534 80.4541 98.1212 81.0412 97.7386C81.6321 97.3523 82.3215 97.1591 83.1094 97.1591C83.723 97.1591 84.276 97.2727 84.7685 97.5C85.2609 97.7273 85.6643 98.0455 85.9787 98.4545C86.2931 98.8636 86.4882 99.3409 86.5639 99.8864H85.223C85.1207 99.4886 84.8935 99.1364 84.5412 98.8295C84.1927 98.5189 83.723 98.3636 83.1321 98.3636C82.6094 98.3636 82.151 98.5 81.7571 98.7727C81.367 99.0417 81.062 99.4223 80.8423 99.9148C80.6264 100.403 80.5185 100.977 80.5185 101.636C80.5185 102.311 80.6245 102.898 80.8366 103.398C81.0526 103.898 81.3556 104.286 81.7457 104.562C82.1397 104.839 82.6018 104.977 83.1321 104.977C83.4806 104.977 83.7969 104.917 84.081 104.795C84.3651 104.674 84.6056 104.5 84.8026 104.273C84.9995 104.045 85.1397 103.773 85.223 103.455H86.5639C86.4882 103.97 86.3007 104.434 86.0014 104.847C85.706 105.256 85.3139 105.581 84.8253 105.824C84.3404 106.062 83.776 106.182 83.1321 106.182ZM92.1832 106.182C91.3423 106.182 90.617 105.996 90.0071 105.625C89.401 105.25 88.9332 104.727 88.6037 104.057C88.2779 103.383 88.1151 102.598 88.1151 101.705C88.1151 100.811 88.2779 100.023 88.6037 99.3409C88.9332 98.6553 89.3916 98.1212 89.9787 97.7386C90.5696 97.3523 91.259 97.1591 92.0469 97.1591C92.5014 97.1591 92.9503 97.2348 93.3935 97.3864C93.8366 97.5379 94.2401 97.7841 94.6037 98.125C94.9673 98.4621 95.2571 98.9091 95.473 99.4659C95.6889 100.023 95.7969 100.708 95.7969 101.523V102.091H89.0696V100.932H94.4332C94.4332 100.439 94.3348 100 94.1378 99.6136C93.9446 99.2273 93.6681 98.9223 93.3082 98.6989C92.9522 98.4754 92.5317 98.3636 92.0469 98.3636C91.5128 98.3636 91.0507 98.4962 90.6605 98.7614C90.2741 99.0227 89.9768 99.3636 89.7685 99.7841C89.5601 100.205 89.456 100.655 89.456 101.136V101.909C89.456 102.568 89.5696 103.127 89.7969 103.585C90.0279 104.04 90.348 104.386 90.7571 104.625C91.1662 104.86 91.6416 104.977 92.1832 104.977C92.5355 104.977 92.8537 104.928 93.1378 104.83C93.4257 104.727 93.6738 104.576 93.8821 104.375C94.0904 104.17 94.2514 103.917 94.3651 103.614L95.6605 103.977C95.5241 104.417 95.295 104.803 94.973 105.136C94.651 105.466 94.2533 105.723 93.7798 105.909C93.3063 106.091 92.7741 106.182 92.1832 106.182ZM99.1776 100.75V106H97.8366V94.3636H99.1776V98.6364H99.2912C99.4957 98.1856 99.8026 97.8277 100.212 97.5625C100.625 97.2936 101.174 97.1591 101.859 97.1591C102.454 97.1591 102.975 97.2784 103.422 97.517C103.869 97.7519 104.215 98.1136 104.462 98.6023C104.712 99.0871 104.837 99.7045 104.837 100.455V106H103.496V100.545C103.496 99.8523 103.316 99.3163 102.956 98.9375C102.6 98.5549 102.106 98.3636 101.473 98.3636C101.034 98.3636 100.64 98.4564 100.291 98.642C99.9465 98.8277 99.6738 99.0985 99.473 99.4545C99.276 99.8106 99.1776 100.242 99.1776 100.75ZM110.835 106.182C110.047 106.182 109.356 105.994 108.761 105.619C108.17 105.244 107.708 104.72 107.375 104.045C107.045 103.371 106.881 102.583 106.881 101.682C106.881 100.773 107.045 99.9792 107.375 99.3011C107.708 98.6231 108.17 98.0966 108.761 97.7216C109.356 97.3466 110.047 97.1591 110.835 97.1591C111.623 97.1591 112.313 97.3466 112.903 97.7216C113.498 98.0966 113.96 98.6231 114.29 99.3011C114.623 99.9792 114.79 100.773 114.79 101.682C114.79 102.583 114.623 103.371 114.29 104.045C113.96 104.72 113.498 105.244 112.903 105.619C112.313 105.994 111.623 106.182 110.835 106.182ZM110.835 104.977C111.434 104.977 111.926 104.824 112.312 104.517C112.699 104.21 112.985 103.807 113.17 103.307C113.356 102.807 113.449 102.265 113.449 101.682C113.449 101.098 113.356 100.555 113.17 100.051C112.985 99.5473 112.699 99.1402 112.312 98.8295C111.926 98.5189 111.434 98.3636 110.835 98.3636C110.237 98.3636 109.744 98.5189 109.358 98.8295C108.972 99.1402 108.686 99.5473 108.5 100.051C108.314 100.555 108.222 101.098 108.222 101.682C108.222 102.265 108.314 102.807 108.5 103.307C108.686 103.807 108.972 104.21 109.358 104.517C109.744 104.824 110.237 104.977 110.835 104.977ZM118.178 94.3636V106H116.837V94.3636H118.178ZM123.929 106.182C123.202 106.182 122.56 105.998 122.003 105.631C121.446 105.259 121.01 104.737 120.696 104.062C120.382 103.384 120.224 102.583 120.224 101.659C120.224 100.742 120.382 99.947 120.696 99.2727C121.01 98.5985 121.448 98.0777 122.009 97.7102C122.569 97.3428 123.217 97.1591 123.952 97.1591C124.52 97.1591 124.969 97.2538 125.298 97.4432C125.632 97.6288 125.885 97.8409 126.06 98.0795C126.238 98.3144 126.376 98.5076 126.474 98.6591H126.588V94.3636H127.929V106H126.634V104.659H126.474C126.376 104.818 126.236 105.019 126.054 105.261C125.872 105.5 125.613 105.714 125.276 105.903C124.938 106.089 124.49 106.182 123.929 106.182ZM124.111 104.977C124.649 104.977 125.103 104.837 125.474 104.557C125.846 104.273 126.128 103.881 126.321 103.381C126.514 102.877 126.611 102.295 126.611 101.636C126.611 100.985 126.516 100.415 126.327 99.9261C126.137 99.4337 125.857 99.0511 125.486 98.7784C125.115 98.5019 124.656 98.3636 124.111 98.3636C123.543 98.3636 123.069 98.5095 122.69 98.8011C122.315 99.089 122.033 99.4811 121.844 99.9773C121.658 100.47 121.565 101.023 121.565 101.636C121.565 102.258 121.66 102.822 121.849 103.33C122.043 103.833 122.327 104.235 122.702 104.534C123.08 104.83 123.55 104.977 124.111 104.977ZM134.23 106.182C133.389 106.182 132.664 105.996 132.054 105.625C131.448 105.25 130.98 104.727 130.651 104.057C130.325 103.383 130.162 102.598 130.162 101.705C130.162 100.811 130.325 100.023 130.651 99.3409C130.98 98.6553 131.438 98.1212 132.026 97.7386C132.616 97.3523 133.306 97.1591 134.094 97.1591C134.548 97.1591 134.997 97.2348 135.44 97.3864C135.884 97.5379 136.287 97.7841 136.651 98.125C137.014 98.4621 137.304 98.9091 137.52 99.4659C137.736 100.023 137.844 100.708 137.844 101.523V102.091H131.116V100.932H136.48C136.48 100.439 136.382 100 136.185 99.6136C135.991 99.2273 135.715 98.9223 135.355 98.6989C134.999 98.4754 134.579 98.3636 134.094 98.3636C133.56 98.3636 133.098 98.4962 132.707 98.7614C132.321 99.0227 132.024 99.3636 131.815 99.7841C131.607 100.205 131.503 100.655 131.503 101.136V101.909C131.503 102.568 131.616 103.127 131.844 103.585C132.075 104.04 132.395 104.386 132.804 104.625C133.213 104.86 133.688 104.977 134.23 104.977C134.582 104.977 134.901 104.928 135.185 104.83C135.473 104.727 135.721 104.576 135.929 104.375C136.137 104.17 136.298 103.917 136.412 103.614L137.707 103.977C137.571 104.417 137.342 104.803 137.02 105.136C136.698 105.466 136.3 105.723 135.827 105.909C135.353 106.091 134.821 106.182 134.23 106.182ZM139.884 106V97.2727H141.179V98.5909H141.27C141.429 98.1591 141.717 97.8087 142.134 97.5398C142.55 97.2708 143.02 97.1364 143.543 97.1364C143.641 97.1364 143.764 97.1383 143.912 97.142C144.06 97.1458 144.171 97.1515 144.247 97.1591V98.5227C144.202 98.5114 144.098 98.4943 143.935 98.4716C143.776 98.4451 143.607 98.4318 143.429 98.4318C143.005 98.4318 142.626 98.5208 142.293 98.6989C141.963 98.8731 141.702 99.1155 141.509 99.4261C141.319 99.733 141.224 100.083 141.224 100.477V106H139.884Z" fill="black"/>
</svg>
